<svg xmlns="http://www.w3.org/2000/svg" width="1382" height="804" viewBox="0 0 1382 804" font-family="DejaVu Sans Mono, Noto Color Emoji, monospace" font-size="15">
<rect width="100%" height="100%" rx="10" fill="#1a1b26"/>
<rect x="0.5" y="0.5" width="1382" height="803" rx="10" fill="none" stroke="#3b4261"/>
<circle cx="20" cy="13" r="5" fill="#f7768e"/>
<circle cx="36" cy="13" r="5" fill="#e0af68"/>
<circle cx="52" cy="13" r="5" fill="#9ece6a"/>
<text x="691" y="17" fill="#565f89" text-anchor="middle">arch — чат + mermaid</text>
<line x1="0" y1="26" x2="1382" y2="26" stroke="#3b4261"/>
<rect x="14.0" y="29.0" width="9.0" height="19" fill="#1a1b26"/><text x="14.0" y="43.8" xml:space="preserve" fill="#bb9af7">╭</text><rect x="23.0" y="29.0" width="72.2" height="19" fill="#1a1b26"/><text x="23.0" y="43.8" xml:space="preserve" fill="#7dcfff" font-weight="700"> Диалог</text><rect x="95.3" y="29.0" width="731.4" height="19" fill="#1a1b26"/><text x="95.3" y="43.8" xml:space="preserve" fill="#bb9af7">─────────────────────────────────────────────────────────────────────────────────</text><rect x="826.7" y="29.0" width="54.2" height="19" fill="#1a1b26"/><text x="826.7" y="43.8" xml:space="preserve" fill="#6b739e"> 5/38</text><rect x="880.9" y="29.0" width="9.0" height="19" fill="#1a1b26"/><text x="880.9" y="43.8" xml:space="preserve" fill="#bb9af7">╮</text><rect x="889.9" y="29.0" width="9.0" height="19" fill="#1a1b26"/><text x="889.9" y="43.8" xml:space="preserve" fill="#6b739e">╭</text><rect x="898.9" y="29.0" width="99.3" height="19" fill="#7dcfff"/><text x="898.9" y="43.8" xml:space="preserve" fill="#1a1b26" font-weight="700"> ◇ Mermaid</text><rect x="998.3" y="29.0" width="370.2" height="19" fill="#1a1b26"/><text x="998.3" y="43.8" xml:space="preserve" fill="#6b739e"> ✓ Рубрика  ◈ Знания  ▶ Флот ───────────╮</text><rect x="14.0" y="48.0" width="9.0" height="19" fill="#1a1b26"/><text x="14.0" y="62.8" xml:space="preserve" fill="#bb9af7">│</text><rect x="23.0" y="48.0" width="388.3" height="19" fill="#1a1b26"/><text x="23.0" y="62.8" xml:space="preserve" fill="#7dcfff" font-weight="700"> ▗▄▄▄▄▖    ██║  ██║██║  ██║╚██████╗██║  ██║</text><rect x="411.3" y="48.0" width="469.6" height="19" fill="#1a1b26"/><rect x="880.9" y="48.0" width="18.1" height="19" fill="#1a1b26"/><text x="880.9" y="62.8" xml:space="preserve" fill="#6b739e">││</text><rect x="898.9" y="48.0" width="261.9" height="19" fill="#1a1b26"/><text x="898.9" y="62.8" xml:space="preserve" fill="#9ece6a">                     ┌──────┐</text><rect x="1160.8" y="48.0" width="198.7" height="19" fill="#1a1b26"/><rect x="1359.5" y="48.0" width="9.0" height="19" fill="#1a1b26"/><text x="1359.5" y="62.8" xml:space="preserve" fill="#6b739e">│</text><rect x="14.0" y="67.0" width="9.0" height="19" fill="#1a1b26"/><text x="14.0" y="81.8" xml:space="preserve" fill="#bb9af7">│</text><rect x="23.0" y="67.0" width="388.3" height="19" fill="#1a1b26"/><text x="23.0" y="81.8" xml:space="preserve" fill="#7dcfff" font-weight="700">▐██████▌   ╚═╝  ╚═╝╚═╝  ╚═╝ ╚═════╝╚═╝  ╚═╝</text><rect x="411.3" y="67.0" width="469.6" height="19" fill="#1a1b26"/><rect x="880.9" y="67.0" width="18.1" height="19" fill="#1a1b26"/><text x="880.9" y="81.8" xml:space="preserve" fill="#6b739e">││</text><rect x="898.9" y="67.0" width="261.9" height="19" fill="#1a1b26"/><text x="898.9" y="81.8" xml:space="preserve" fill="#9ece6a">                     │ Вход │</text><rect x="1160.8" y="67.0" width="198.7" height="19" fill="#1a1b26"/><rect x="1359.5" y="67.0" width="9.0" height="19" fill="#1a1b26"/><text x="1359.5" y="81.8" xml:space="preserve" fill="#6b739e">│</text><rect x="14.0" y="86.0" width="9.0" height="19" fill="#1a1b26"/><text x="14.0" y="100.8" xml:space="preserve" fill="#bb9af7">│</text><rect x="23.0" y="86.0" width="460.5" height="19" fill="#1a1b26"/><text x="23.0" y="100.8" xml:space="preserve" fill="#7dcfff" font-weight="700"> ▝▀▀▀▀▘    ███████╗ ██████╗ ██╗ ███╗   ██╗ ███████╗</text><rect x="483.6" y="86.0" width="397.3" height="19" fill="#1a1b26"/><rect x="880.9" y="86.0" width="18.1" height="19" fill="#1a1b26"/><text x="880.9" y="100.8" xml:space="preserve" fill="#6b739e">││</text><rect x="898.9" y="86.0" width="261.9" height="19" fill="#1a1b26"/><text x="898.9" y="100.8" xml:space="preserve" fill="#9ece6a">                     └──────┘</text><rect x="1160.8" y="86.0" width="198.7" height="19" fill="#1a1b26"/><rect x="1359.5" y="86.0" width="9.0" height="19" fill="#1a1b26"/><text x="1359.5" y="100.8" xml:space="preserve" fill="#6b739e">│</text><rect x="14.0" y="105.0" width="9.0" height="19" fill="#1a1b26"/><text x="14.0" y="119.8" xml:space="preserve" fill="#bb9af7">│</text><rect x="23.0" y="105.0" width="460.5" height="19" fill="#1a1b26"/><text x="23.0" y="119.8" xml:space="preserve" fill="#7dcfff" font-weight="700">   ██      ██╔════╝ ██╔══██╗██║ ████╗  ██║ ██╔════╝</text><rect x="483.6" y="105.0" width="397.3" height="19" fill="#1a1b26"/><rect x="880.9" y="105.0" width="9.0" height="19" fill="#1a1b26"/><text x="880.9" y="119.8" xml:space="preserve" fill="#7dcfff">█</text><rect x="889.9" y="105.0" width="9.0" height="19" fill="#1a1b26"/><text x="889.9" y="119.8" xml:space="preserve" fill="#6b739e">│</text><rect x="898.9" y="105.0" width="234.8" height="19" fill="#1a1b26"/><text x="898.9" y="119.8" xml:space="preserve" fill="#9ece6a">                         │</text><rect x="1133.7" y="105.0" width="225.8" height="19" fill="#1a1b26"/><rect x="1359.5" y="105.0" width="9.0" height="19" fill="#1a1b26"/><text x="1359.5" y="119.8" xml:space="preserve" fill="#6b739e">│</text><rect x="14.0" y="124.0" width="9.0" height="19" fill="#1a1b26"/><text x="14.0" y="138.8" xml:space="preserve" fill="#bb9af7">│</text><rect x="23.0" y="124.0" width="442.5" height="19" fill="#1a1b26"/><text x="23.0" y="138.8" xml:space="preserve" fill="#7dcfff" font-weight="700"> ▗▄▄▄▄▖    ███████╗ ██████╔╝██║ ██╔██╗ ██║ █████╗</text><rect x="465.5" y="124.0" width="415.4" height="19" fill="#1a1b26"/><rect x="880.9" y="124.0" width="9.0" height="19" fill="#1a1b26"/><text x="880.9" y="138.8" xml:space="preserve" fill="#7dcfff">█</text><rect x="889.9" y="124.0" width="9.0" height="19" fill="#1a1b26"/><text x="889.9" y="138.8" xml:space="preserve" fill="#6b739e">│</text><rect x="898.9" y="124.0" width="234.8" height="19" fill="#1a1b26"/><text x="898.9" y="138.8" xml:space="preserve" fill="#9ece6a">                         ▼</text><rect x="1133.7" y="124.0" width="225.8" height="19" fill="#1a1b26"/><rect x="1359.5" y="124.0" width="9.0" height="19" fill="#1a1b26"/><text x="1359.5" y="138.8" xml:space="preserve" fill="#6b739e">│</text><rect x="14.0" y="143.0" width="9.0" height="19" fill="#1a1b26"/><text x="14.0" y="157.8" xml:space="preserve" fill="#bb9af7">│</text><rect x="23.0" y="143.0" width="442.5" height="19" fill="#1a1b26"/><text x="23.0" y="157.8" xml:space="preserve" fill="#7dcfff" font-weight="700">▐██████▌   ╚════██║ ██╔═══╝ ██║ ██║╚██╗██║ ██╔══╝</text><rect x="465.5" y="143.0" width="415.4" height="19" fill="#1a1b26"/><rect x="880.9" y="143.0" width="9.0" height="19" fill="#1a1b26"/><text x="880.9" y="157.8" xml:space="preserve" fill="#7dcfff">█</text><rect x="889.9" y="143.0" width="9.0" height="19" fill="#1a1b26"/><text x="889.9" y="157.8" xml:space="preserve" fill="#6b739e">│</text><rect x="898.9" y="143.0" width="298.0" height="19" fill="#1a1b26"/><text x="898.9" y="157.8" xml:space="preserve" fill="#9ece6a">                 ┌──────────────┐</text><rect x="1196.9" y="143.0" width="162.5" height="19" fill="#1a1b26"/><rect x="1359.5" y="143.0" width="9.0" height="19" fill="#1a1b26"/><text x="1359.5" y="157.8" xml:space="preserve" fill="#6b739e">│</text><rect x="14.0" y="162.0" width="9.0" height="19" fill="#1a1b26"/><text x="14.0" y="176.8" xml:space="preserve" fill="#bb9af7">│</text><rect x="23.0" y="162.0" width="460.5" height="19" fill="#1a1b26"/><text x="23.0" y="176.8" xml:space="preserve" fill="#7dcfff" font-weight="700"> ▝▀▀▀▀▘    ███████║ ██║     ██║ ██║ ╚████║ ███████║</text><rect x="483.6" y="162.0" width="397.3" height="19" fill="#1a1b26"/><rect x="880.9" y="162.0" width="9.0" height="19" fill="#1a1b26"/><text x="880.9" y="176.8" xml:space="preserve" fill="#7dcfff">█</text><rect x="889.9" y="162.0" width="9.0" height="19" fill="#1a1b26"/><text x="889.9" y="176.8" xml:space="preserve" fill="#6b739e">│</text><rect x="898.9" y="162.0" width="298.0" height="19" fill="#1a1b26"/><text x="898.9" y="176.8" xml:space="preserve" fill="#9ece6a">                 │ Роутер top-2 │</text><rect x="1196.9" y="162.0" width="162.5" height="19" fill="#1a1b26"/><rect x="1359.5" y="162.0" width="9.0" height="19" fill="#1a1b26"/><text x="1359.5" y="176.8" xml:space="preserve" fill="#6b739e">│</text><rect x="14.0" y="181.0" width="9.0" height="19" fill="#1a1b26"/><text x="14.0" y="195.8" xml:space="preserve" fill="#bb9af7">│</text><rect x="23.0" y="181.0" width="460.5" height="19" fill="#1a1b26"/><text x="23.0" y="195.8" xml:space="preserve" fill="#6b739e">  ▝▀▀      ╚══════╝ ╚═╝     ╚═╝ ╚═╝  ╚═══╝ ╚══════╝</text><rect x="483.6" y="181.0" width="397.3" height="19" fill="#1a1b26"/><rect x="880.9" y="181.0" width="9.0" height="19" fill="#1a1b26"/><text x="880.9" y="195.8" xml:space="preserve" fill="#7dcfff">█</text><rect x="889.9" y="181.0" width="9.0" height="19" fill="#1a1b26"/><text x="889.9" y="195.8" xml:space="preserve" fill="#6b739e">│</text><rect x="898.9" y="181.0" width="298.0" height="19" fill="#1a1b26"/><text x="898.9" y="195.8" xml:space="preserve" fill="#9ece6a">                 └──────────────┘</text><rect x="1196.9" y="181.0" width="162.5" height="19" fill="#1a1b26"/><rect x="1359.5" y="181.0" width="9.0" height="19" fill="#1a1b26"/><text x="1359.5" y="195.8" xml:space="preserve" fill="#6b739e">│</text><rect x="14.0" y="200.0" width="9.0" height="19" fill="#1a1b26"/><text x="14.0" y="214.8" xml:space="preserve" fill="#bb9af7">│</text><rect x="23.0" y="200.0" width="279.9" height="19" fill="#1a1b26"/><text x="23.0" y="214.8" xml:space="preserve" fill="#6b739e">      A I / M L   E D I T I O N</text><rect x="303.0" y="200.0" width="577.9" height="19" fill="#1a1b26"/><rect x="880.9" y="200.0" width="9.0" height="19" fill="#1a1b26"/><text x="880.9" y="214.8" xml:space="preserve" fill="#7dcfff">█</text><rect x="889.9" y="200.0" width="9.0" height="19" fill="#1a1b26"/><text x="889.9" y="214.8" xml:space="preserve" fill="#6b739e">│</text><rect x="898.9" y="200.0" width="397.3" height="19" fill="#1a1b26"/><text x="898.9" y="214.8" xml:space="preserve" fill="#9ece6a">       ┌─────────────────┼─────────────────┐</text><rect x="1296.3" y="200.0" width="63.2" height="19" fill="#1a1b26"/><rect x="1359.5" y="200.0" width="9.0" height="19" fill="#1a1b26"/><text x="1359.5" y="214.8" xml:space="preserve" fill="#6b739e">│</text><rect x="14.0" y="219.0" width="9.0" height="19" fill="#1a1b26"/><text x="14.0" y="233.8" xml:space="preserve" fill="#bb9af7">│</text><rect x="23.0" y="219.0" width="442.5" height="19" fill="#1a1b26"/><text x="23.0" y="233.8" xml:space="preserve" fill="#6b739e">solution-архитектор AI/ML · ADR · spine · handoff</text><rect x="465.5" y="219.0" width="415.4" height="19" fill="#1a1b26"/><rect x="880.9" y="219.0" width="9.0" height="19" fill="#1a1b26"/><text x="880.9" y="233.8" xml:space="preserve" fill="#7dcfff">█</text><rect x="889.9" y="219.0" width="9.0" height="19" fill="#1a1b26"/><text x="889.9" y="233.8" xml:space="preserve" fill="#6b739e">│</text><rect x="898.9" y="219.0" width="397.3" height="19" fill="#1a1b26"/><text x="898.9" y="233.8" xml:space="preserve" fill="#9ece6a">       ▼                 ▼                 ▼</text><rect x="1296.3" y="219.0" width="63.2" height="19" fill="#1a1b26"/><rect x="1359.5" y="219.0" width="9.0" height="19" fill="#1a1b26"/><text x="1359.5" y="233.8" xml:space="preserve" fill="#6b739e">│</text><rect x="14.0" y="238.0" width="9.0" height="19" fill="#1a1b26"/><text x="14.0" y="252.8" xml:space="preserve" fill="#bb9af7">│</text><rect x="23.0" y="238.0" width="857.8" height="19" fill="#1a1b26"/><rect x="880.9" y="238.0" width="9.0" height="19" fill="#1a1b26"/><text x="880.9" y="252.8" xml:space="preserve" fill="#7dcfff">█</text><rect x="889.9" y="238.0" width="9.0" height="19" fill="#1a1b26"/><text x="889.9" y="252.8" xml:space="preserve" fill="#6b739e">│</text><rect x="898.9" y="238.0" width="460.5" height="19" fill="#1a1b26"/><text x="898.9" y="252.8" xml:space="preserve" fill="#9ece6a">┌─────────────┐   ┌─────────────┐   ┌─────────────┐</text><rect x="1359.5" y="238.0" width="9.0" height="19" fill="#1a1b26"/><text x="1359.5" y="252.8" xml:space="preserve" fill="#6b739e">│</text><rect x="14.0" y="257.0" width="9.0" height="19" fill="#1a1b26"/><text x="14.0" y="271.8" xml:space="preserve" fill="#bb9af7">│</text><rect x="23.0" y="257.0" width="36.1" height="19" fill="#1a1b26"/><text x="23.0" y="271.8" xml:space="preserve" fill="#7dcfff" font-weight="700">● вы</text><rect x="59.1" y="257.0" width="821.7" height="19" fill="#1a1b26"/><rect x="880.9" y="257.0" width="9.0" height="19" fill="#1a1b26"/><text x="880.9" y="271.8" xml:space="preserve" fill="#7dcfff">█</text><rect x="889.9" y="257.0" width="9.0" height="19" fill="#1a1b26"/><text x="889.9" y="271.8" xml:space="preserve" fill="#6b739e">│</text><rect x="898.9" y="257.0" width="460.5" height="19" fill="#1a1b26"/><text x="898.9" y="271.8" xml:space="preserve" fill="#9ece6a">│ (Эксперт 1) │   │ (Эксперт 2) │   │ (Эксперт 8) │</text><rect x="1359.5" y="257.0" width="9.0" height="19" fill="#1a1b26"/><text x="1359.5" y="271.8" xml:space="preserve" fill="#6b739e">│</text><rect x="14.0" y="276.0" width="9.0" height="19" fill="#1a1b26"/><text x="14.0" y="290.8" xml:space="preserve" fill="#bb9af7">│</text><rect x="23.0" y="276.0" width="18.1" height="19" fill="#1a1b26"/><text x="23.0" y="290.8" xml:space="preserve" fill="#7dcfff">▎</text><rect x="41.1" y="276.0" width="839.8" height="19" fill="#1a1b26"/><text x="41.1" y="290.8" xml:space="preserve" fill="#c0caf5">спроектируй MoE-графтинг из двух dense-моделей: эксперты, роутер, инициализация gate</text><rect x="880.9" y="276.0" width="9.0" height="19" fill="#1a1b26"/><text x="880.9" y="290.8" xml:space="preserve" fill="#7dcfff">█</text><rect x="889.9" y="276.0" width="9.0" height="19" fill="#1a1b26"/><text x="889.9" y="290.8" xml:space="preserve" fill="#6b739e">│</text><rect x="898.9" y="276.0" width="460.5" height="19" fill="#1a1b26"/><text x="898.9" y="290.8" xml:space="preserve" fill="#9ece6a">└─────────────┘   └─────────────┘   └─────────────┘</text><rect x="1359.5" y="276.0" width="9.0" height="19" fill="#1a1b26"/><text x="1359.5" y="290.8" xml:space="preserve" fill="#6b739e">│</text><rect x="14.0" y="295.0" width="9.0" height="19" fill="#1a1b26"/><text x="14.0" y="309.8" xml:space="preserve" fill="#bb9af7">│</text><rect x="23.0" y="295.0" width="857.8" height="19" fill="#1a1b26"/><rect x="880.9" y="295.0" width="9.0" height="19" fill="#1a1b26"/><text x="880.9" y="309.8" xml:space="preserve" fill="#7dcfff">█</text><rect x="889.9" y="295.0" width="9.0" height="19" fill="#1a1b26"/><text x="889.9" y="309.8" xml:space="preserve" fill="#6b739e">│</text><rect x="898.9" y="295.0" width="397.3" height="19" fill="#1a1b26"/><text x="898.9" y="309.8" xml:space="preserve" fill="#9ece6a">       └─────────────────┼─────────────────┘</text><rect x="1296.3" y="295.0" width="63.2" height="19" fill="#1a1b26"/><rect x="1359.5" y="295.0" width="9.0" height="19" fill="#1a1b26"/><text x="1359.5" y="309.8" xml:space="preserve" fill="#6b739e">│</text><rect x="14.0" y="314.0" width="9.0" height="19" fill="#1a1b26"/><text x="14.0" y="328.8" xml:space="preserve" fill="#bb9af7">│</text><rect x="23.0" y="314.0" width="18.1" height="19" fill="#1a1b26"/><text x="23.0" y="328.8" xml:space="preserve" fill="#9ece6a">✓</text><rect x="41.1" y="314.0" width="90.3" height="19" fill="#1a1b26"/><text x="41.1" y="328.8" xml:space="preserve" fill="#9ece6a" font-weight="700">skill_load</text><rect x="131.4" y="314.0" width="117.4" height="19" fill="#1a1b26"/><text x="131.4" y="328.8" xml:space="preserve" fill="#6b739e"> llm-grafting</text><rect x="248.8" y="314.0" width="632.1" height="19" fill="#1a1b26"/><rect x="880.9" y="314.0" width="9.0" height="19" fill="#1a1b26"/><text x="880.9" y="328.8" xml:space="preserve" fill="#7dcfff">█</text><rect x="889.9" y="314.0" width="9.0" height="19" fill="#1a1b26"/><text x="889.9" y="328.8" xml:space="preserve" fill="#6b739e">│</text><rect x="898.9" y="314.0" width="234.8" height="19" fill="#1a1b26"/><text x="898.9" y="328.8" xml:space="preserve" fill="#9ece6a">                         ▼</text><rect x="1133.7" y="314.0" width="225.8" height="19" fill="#1a1b26"/><rect x="1359.5" y="314.0" width="9.0" height="19" fill="#1a1b26"/><text x="1359.5" y="328.8" xml:space="preserve" fill="#6b739e">│</text><rect x="14.0" y="333.0" width="9.0" height="19" fill="#1a1b26"/><text x="14.0" y="347.8" xml:space="preserve" fill="#bb9af7">│</text><rect x="23.0" y="333.0" width="18.1" height="19" fill="#1a1b26"/><text x="23.0" y="347.8" xml:space="preserve" fill="#9ece6a">✓</text><rect x="41.1" y="333.0" width="81.3" height="19" fill="#1a1b26"/><text x="41.1" y="347.8" xml:space="preserve" fill="#9ece6a" font-weight="700">kb_search</text><rect x="122.4" y="333.0" width="252.8" height="19" fill="#1a1b26"/><text x="122.4" y="347.8" xml:space="preserve" fill="#6b739e"> «MoE роутер load balancing»</text><rect x="375.2" y="333.0" width="505.7" height="19" fill="#1a1b26"/><rect x="880.9" y="333.0" width="9.0" height="19" fill="#1a1b26"/><text x="880.9" y="347.8" xml:space="preserve" fill="#7dcfff">█</text><rect x="889.9" y="333.0" width="9.0" height="19" fill="#1a1b26"/><text x="889.9" y="347.8" xml:space="preserve" fill="#6b739e">│</text><rect x="898.9" y="333.0" width="261.9" height="19" fill="#1a1b26"/><text x="898.9" y="347.8" xml:space="preserve" fill="#9ece6a">                     ┌──────┐</text><rect x="1160.8" y="333.0" width="198.7" height="19" fill="#1a1b26"/><rect x="1359.5" y="333.0" width="9.0" height="19" fill="#1a1b26"/><text x="1359.5" y="347.8" xml:space="preserve" fill="#6b739e">│</text><rect x="14.0" y="352.0" width="9.0" height="19" fill="#1a1b26"/><text x="14.0" y="366.8" xml:space="preserve" fill="#bb9af7">│</text><rect x="23.0" y="352.0" width="18.1" height="19" fill="#1a1b26"/><text x="23.0" y="366.8" xml:space="preserve" fill="#9ece6a">✓</text><rect x="41.1" y="352.0" width="126.4" height="19" fill="#1a1b26"/><text x="41.1" y="366.8" xml:space="preserve" fill="#9ece6a" font-weight="700">concept_search</text><rect x="167.5" y="352.0" width="63.2" height="19" fill="#1a1b26"/><text x="167.5" y="366.8" xml:space="preserve" fill="#6b739e"> «GRPO»</text><rect x="230.7" y="352.0" width="650.2" height="19" fill="#1a1b26"/><rect x="880.9" y="352.0" width="9.0" height="19" fill="#1a1b26"/><text x="880.9" y="366.8" xml:space="preserve" fill="#7dcfff">█</text><rect x="889.9" y="352.0" width="9.0" height="19" fill="#1a1b26"/><text x="889.9" y="366.8" xml:space="preserve" fill="#6b739e">│</text><rect x="898.9" y="352.0" width="261.9" height="19" fill="#1a1b26"/><text x="898.9" y="366.8" xml:space="preserve" fill="#9ece6a">                     │ Gate │</text><rect x="1160.8" y="352.0" width="198.7" height="19" fill="#1a1b26"/><rect x="1359.5" y="352.0" width="9.0" height="19" fill="#1a1b26"/><text x="1359.5" y="366.8" xml:space="preserve" fill="#6b739e">│</text><rect x="14.0" y="371.0" width="9.0" height="19" fill="#1a1b26"/><text x="14.0" y="385.8" xml:space="preserve" fill="#bb9af7">│</text><rect x="23.0" y="371.0" width="650.2" height="19" fill="#1a1b26"/><text x="23.0" y="385.8" xml:space="preserve" fill="#6b739e">  карточка group_relative_policy_optimization · 12 алиасов · 514 соседей</text><rect x="673.2" y="371.0" width="207.7" height="19" fill="#1a1b26"/><rect x="880.9" y="371.0" width="9.0" height="19" fill="#1a1b26"/><text x="880.9" y="385.8" xml:space="preserve" fill="#7dcfff">█</text><rect x="889.9" y="371.0" width="9.0" height="19" fill="#1a1b26"/><text x="889.9" y="385.8" xml:space="preserve" fill="#6b739e">│</text><rect x="898.9" y="371.0" width="261.9" height="19" fill="#1a1b26"/><text x="898.9" y="385.8" xml:space="preserve" fill="#9ece6a">                     └──────┘</text><rect x="1160.8" y="371.0" width="198.7" height="19" fill="#1a1b26"/><rect x="1359.5" y="371.0" width="9.0" height="19" fill="#1a1b26"/><text x="1359.5" y="385.8" xml:space="preserve" fill="#6b739e">│</text><rect x="14.0" y="390.0" width="9.0" height="19" fill="#1a1b26"/><text x="14.0" y="404.8" xml:space="preserve" fill="#bb9af7">│</text><rect x="23.0" y="390.0" width="857.8" height="19" fill="#1a1b26"/><rect x="880.9" y="390.0" width="9.0" height="19" fill="#1a1b26"/><text x="880.9" y="404.8" xml:space="preserve" fill="#7dcfff">█</text><rect x="889.9" y="390.0" width="9.0" height="19" fill="#1a1b26"/><text x="889.9" y="404.8" xml:space="preserve" fill="#6b739e">│</text><rect x="898.9" y="390.0" width="234.8" height="19" fill="#1a1b26"/><text x="898.9" y="404.8" xml:space="preserve" fill="#9ece6a">                         │</text><rect x="1133.7" y="390.0" width="225.8" height="19" fill="#1a1b26"/><rect x="1359.5" y="390.0" width="9.0" height="19" fill="#1a1b26"/><text x="1359.5" y="404.8" xml:space="preserve" fill="#6b739e">│</text><rect x="14.0" y="409.0" width="9.0" height="19" fill="#1a1b26"/><text x="14.0" y="423.8" xml:space="preserve" fill="#bb9af7">│</text><rect x="23.0" y="409.0" width="45.1" height="19" fill="#1a1b26"/><text x="23.0" y="423.8" xml:space="preserve" fill="#bb9af7" font-weight="700">◆ арх</text><rect x="68.2" y="409.0" width="812.7" height="19" fill="#1a1b26"/><rect x="880.9" y="409.0" width="9.0" height="19" fill="#1a1b26"/><text x="880.9" y="423.8" xml:space="preserve" fill="#7dcfff">█</text><rect x="889.9" y="409.0" width="9.0" height="19" fill="#1a1b26"/><text x="889.9" y="423.8" xml:space="preserve" fill="#6b739e">│</text><rect x="898.9" y="409.0" width="234.8" height="19" fill="#1a1b26"/><text x="898.9" y="423.8" xml:space="preserve" fill="#9ece6a">                         ▼</text><rect x="1133.7" y="409.0" width="225.8" height="19" fill="#1a1b26"/><rect x="1359.5" y="409.0" width="9.0" height="19" fill="#1a1b26"/><text x="1359.5" y="423.8" xml:space="preserve" fill="#6b739e">│</text><rect x="14.0" y="428.0" width="9.0" height="19" fill="#1a1b26"/><text x="14.0" y="442.8" xml:space="preserve" fill="#bb9af7">│</text><rect x="23.0" y="428.0" width="180.6" height="19" fill="#1a1b26"/><text x="23.0" y="442.8" xml:space="preserve" fill="#7dcfff" font-weight="700">Скелет MoE-графтинга</text><rect x="203.6" y="428.0" width="677.2" height="19" fill="#1a1b26"/><rect x="880.9" y="428.0" width="9.0" height="19" fill="#1a1b26"/><text x="880.9" y="442.8" xml:space="preserve" fill="#7dcfff">█</text><rect x="889.9" y="428.0" width="9.0" height="19" fill="#1a1b26"/><text x="889.9" y="442.8" xml:space="preserve" fill="#6b739e">│</text><rect x="898.9" y="428.0" width="270.9" height="19" fill="#1a1b26"/><text x="898.9" y="442.8" xml:space="preserve" fill="#9ece6a">                     ┌───────┐</text><rect x="1169.8" y="428.0" width="189.6" height="19" fill="#1a1b26"/><rect x="1359.5" y="428.0" width="9.0" height="19" fill="#1a1b26"/><text x="1359.5" y="442.8" xml:space="preserve" fill="#6b739e">│</text><rect x="14.0" y="447.0" width="9.0" height="19" fill="#1a1b26"/><text x="14.0" y="461.8" xml:space="preserve" fill="#bb9af7">│</text><rect x="23.0" y="447.0" width="81.3" height="19" fill="#1a1b26"/><text x="23.0" y="461.8" xml:space="preserve" fill="#c0caf5" font-weight="700">Эксперты:</text><rect x="104.3" y="447.0" width="776.6" height="19" fill="#1a1b26"/><text x="104.3" y="461.8" xml:space="preserve" fill="#c0caf5"> FFN-блоки двух dense-доноров → 8 экспертов с прорастанием идентичности.</text><rect x="880.9" y="447.0" width="9.0" height="19" fill="#1a1b26"/><text x="880.9" y="461.8" xml:space="preserve" fill="#7dcfff">█</text><rect x="889.9" y="447.0" width="9.0" height="19" fill="#1a1b26"/><text x="889.9" y="461.8" xml:space="preserve" fill="#6b739e">│</text><rect x="898.9" y="447.0" width="270.9" height="19" fill="#1a1b26"/><text x="898.9" y="461.8" xml:space="preserve" fill="#9ece6a">                     │ Выход │</text><rect x="1169.8" y="447.0" width="189.6" height="19" fill="#1a1b26"/><rect x="1359.5" y="447.0" width="9.0" height="19" fill="#1a1b26"/><text x="1359.5" y="461.8" xml:space="preserve" fill="#6b739e">│</text><rect x="14.0" y="466.0" width="27.1" height="19" fill="#1a1b26"/><text x="14.0" y="480.8" xml:space="preserve" fill="#bb9af7">│•</text><rect x="41.1" y="466.0" width="63.2" height="19" fill="#1a1b26"/><text x="41.1" y="480.8" xml:space="preserve" fill="#c0caf5" font-weight="700">Роутер:</text><rect x="104.3" y="466.0" width="776.6" height="19" fill="#1a1b26"/><text x="104.3" y="480.8" xml:space="preserve" fill="#c0caf5"> top-2 с aux-loss-free балансировкой (bias-коррекция)</text><rect x="880.9" y="466.0" width="9.0" height="19" fill="#1a1b26"/><text x="880.9" y="480.8" xml:space="preserve" fill="#7dcfff">█</text><rect x="889.9" y="466.0" width="9.0" height="19" fill="#1a1b26"/><text x="889.9" y="480.8" xml:space="preserve" fill="#6b739e">│</text><rect x="898.9" y="466.0" width="270.9" height="19" fill="#1a1b26"/><text x="898.9" y="480.8" xml:space="preserve" fill="#9ece6a">                     └───────┘</text><rect x="1169.8" y="466.0" width="189.6" height="19" fill="#1a1b26"/><rect x="1359.5" y="466.0" width="9.0" height="19" fill="#1a1b26"/><text x="1359.5" y="480.8" xml:space="preserve" fill="#6b739e">│</text><rect x="14.0" y="485.0" width="27.1" height="19" fill="#1a1b26"/><text x="14.0" y="499.8" xml:space="preserve" fill="#bb9af7">│•</text><rect x="41.1" y="485.0" width="45.1" height="19" fill="#1a1b26"/><text x="41.1" y="499.8" xml:space="preserve" fill="#c0caf5" font-weight="700">Gate:</text><rect x="86.2" y="485.0" width="794.6" height="19" fill="#1a1b26"/><text x="86.2" y="499.8" xml:space="preserve" fill="#c0caf5"> инициализация из центроидов эмбеддингов доноров</text><rect x="880.9" y="485.0" width="9.0" height="19" fill="#1a1b26"/><text x="880.9" y="499.8" xml:space="preserve" fill="#7dcfff">█</text><rect x="889.9" y="485.0" width="9.0" height="19" fill="#1a1b26"/><text x="889.9" y="499.8" xml:space="preserve" fill="#6b739e">│</text><rect x="898.9" y="485.0" width="460.5" height="19" fill="#1a1b26"/><rect x="1359.5" y="485.0" width="9.0" height="19" fill="#1a1b26"/><text x="1359.5" y="499.8" xml:space="preserve" fill="#6b739e">│</text><rect x="14.0" y="504.0" width="27.1" height="19" fill="#1a1b26"/><text x="14.0" y="518.8" xml:space="preserve" fill="#bb9af7">│•</text><rect x="41.1" y="504.0" width="839.8" height="19" fill="#1a1b26"/><text x="41.1" y="518.8" xml:space="preserve" fill="#c0caf5">Решения — в ADR-001…003, инварианты — в SPINE-ML (ML-05, ML-06)</text><rect x="880.9" y="504.0" width="9.0" height="19" fill="#1a1b26"/><text x="880.9" y="518.8" xml:space="preserve" fill="#7dcfff">█</text><rect x="889.9" y="504.0" width="9.0" height="19" fill="#1a1b26"/><text x="889.9" y="518.8" xml:space="preserve" fill="#6b739e">│</text><rect x="898.9" y="504.0" width="460.5" height="19" fill="#1a1b26"/><rect x="1359.5" y="504.0" width="9.0" height="19" fill="#1a1b26"/><text x="1359.5" y="518.8" xml:space="preserve" fill="#6b739e">│</text><rect x="14.0" y="523.0" width="9.0" height="19" fill="#1a1b26"/><text x="14.0" y="537.8" xml:space="preserve" fill="#bb9af7">│</text><rect x="23.0" y="523.0" width="857.8" height="19" fill="#1a1b26"/><rect x="880.9" y="523.0" width="9.0" height="19" fill="#1a1b26"/><text x="880.9" y="537.8" xml:space="preserve" fill="#7dcfff">█</text><rect x="889.9" y="523.0" width="9.0" height="19" fill="#1a1b26"/><text x="889.9" y="537.8" xml:space="preserve" fill="#6b739e">│</text><rect x="898.9" y="523.0" width="460.5" height="19" fill="#1a1b26"/><rect x="1359.5" y="523.0" width="9.0" height="19" fill="#1a1b26"/><text x="1359.5" y="537.8" xml:space="preserve" fill="#6b739e">│</text><rect x="14.0" y="542.0" width="9.0" height="19" fill="#1a1b26"/><text x="14.0" y="556.8" xml:space="preserve" fill="#bb9af7">│</text><rect x="23.0" y="542.0" width="18.1" height="19" fill="#1a1b26"/><text x="23.0" y="556.8" xml:space="preserve" fill="#9ece6a">✓</text><rect x="41.1" y="542.0" width="126.4" height="19" fill="#1a1b26"/><text x="41.1" y="556.8" xml:space="preserve" fill="#9ece6a" font-weight="700">mermaid_render</text><rect x="167.5" y="542.0" width="207.7" height="19" fill="#1a1b26"/><text x="167.5" y="556.8" xml:space="preserve" fill="#6b739e"> flowchart TD · 8 узлов</text><rect x="375.2" y="542.0" width="505.7" height="19" fill="#1a1b26"/><rect x="880.9" y="542.0" width="9.0" height="19" fill="#1a1b26"/><text x="880.9" y="556.8" xml:space="preserve" fill="#7dcfff">█</text><rect x="889.9" y="542.0" width="9.0" height="19" fill="#1a1b26"/><text x="889.9" y="556.8" xml:space="preserve" fill="#6b739e">│</text><rect x="898.9" y="542.0" width="460.5" height="19" fill="#1a1b26"/><rect x="1359.5" y="542.0" width="9.0" height="19" fill="#1a1b26"/><text x="1359.5" y="556.8" xml:space="preserve" fill="#6b739e">│</text><rect x="14.0" y="561.0" width="9.0" height="19" fill="#1a1b26"/><text x="14.0" y="575.8" xml:space="preserve" fill="#bb9af7">│</text><rect x="23.0" y="561.0" width="18.1" height="19" fill="#1a1b26"/><text x="23.0" y="575.8" xml:space="preserve" fill="#9ece6a">✓</text><rect x="41.1" y="561.0" width="117.4" height="19" fill="#1a1b26"/><text x="41.1" y="575.8" xml:space="preserve" fill="#9ece6a" font-weight="700">control_score</text><rect x="158.5" y="561.0" width="252.8" height="19" fill="#1a1b26"/><text x="158.5" y="575.8" xml:space="preserve" fill="#6b739e"> --trigger pretrain+critical</text><rect x="411.3" y="561.0" width="469.6" height="19" fill="#1a1b26"/><rect x="880.9" y="561.0" width="9.0" height="19" fill="#1a1b26"/><text x="880.9" y="575.8" xml:space="preserve" fill="#7dcfff">█</text><rect x="889.9" y="561.0" width="9.0" height="19" fill="#1a1b26"/><text x="889.9" y="575.8" xml:space="preserve" fill="#6b739e">│</text><rect x="898.9" y="561.0" width="460.5" height="19" fill="#1a1b26"/><rect x="1359.5" y="561.0" width="9.0" height="19" fill="#1a1b26"/><text x="1359.5" y="575.8" xml:space="preserve" fill="#6b739e">│</text><rect x="14.0" y="580.0" width="9.0" height="19" fill="#1a1b26"/><text x="14.0" y="594.8" xml:space="preserve" fill="#bb9af7">│</text><rect x="23.0" y="580.0" width="596.0" height="19" fill="#1a1b26"/><text x="23.0" y="594.8" xml:space="preserve" fill="#6b739e">  Score 12 → маршрут Critical · preflight обязателен до аренды GPU</text><rect x="619.0" y="580.0" width="261.9" height="19" fill="#1a1b26"/><rect x="880.9" y="580.0" width="9.0" height="19" fill="#1a1b26"/><text x="880.9" y="594.8" xml:space="preserve" fill="#7dcfff">█</text><rect x="889.9" y="580.0" width="9.0" height="19" fill="#1a1b26"/><text x="889.9" y="594.8" xml:space="preserve" fill="#6b739e">│</text><rect x="898.9" y="580.0" width="460.5" height="19" fill="#1a1b26"/><rect x="1359.5" y="580.0" width="9.0" height="19" fill="#1a1b26"/><text x="1359.5" y="594.8" xml:space="preserve" fill="#6b739e">│</text><rect x="14.0" y="599.0" width="866.9" height="19" fill="#1a1b26"/><text x="14.0" y="613.8" xml:space="preserve" fill="#bb9af7">│╭ ⏷ очередь · 2 ──────────────────────────────────────────────────────────────────────────────╮</text><rect x="880.9" y="599.0" width="9.0" height="19" fill="#1a1b26"/><text x="880.9" y="613.8" xml:space="preserve" fill="#7dcfff">█</text><rect x="889.9" y="599.0" width="9.0" height="19" fill="#1a1b26"/><text x="889.9" y="613.8" xml:space="preserve" fill="#6b739e">│</text><rect x="898.9" y="599.0" width="460.5" height="19" fill="#1a1b26"/><rect x="1359.5" y="599.0" width="9.0" height="19" fill="#1a1b26"/><text x="1359.5" y="613.8" xml:space="preserve" fill="#6b739e">│</text><rect x="14.0" y="618.0" width="18.1" height="19" fill="#1a1b26"/><text x="14.0" y="632.8" xml:space="preserve" fill="#bb9af7">││</text><rect x="32.1" y="618.0" width="451.5" height="19" fill="#1a1b26"/><text x="32.1" y="632.8" xml:space="preserve" fill="#9ece6a" font-weight="700">▶ 1. а теперь датасет: дедупликация и утечка теста</text><rect x="483.6" y="618.0" width="388.3" height="19" fill="#1a1b26"/><rect x="871.8" y="618.0" width="9.0" height="19" fill="#1a1b26"/><text x="871.8" y="632.8" xml:space="preserve" fill="#bb9af7">│</text><rect x="880.9" y="618.0" width="9.0" height="19" fill="#1a1b26"/><text x="880.9" y="632.8" xml:space="preserve" fill="#7dcfff">█</text><rect x="889.9" y="618.0" width="9.0" height="19" fill="#1a1b26"/><text x="889.9" y="632.8" xml:space="preserve" fill="#6b739e">│</text><rect x="898.9" y="618.0" width="460.5" height="19" fill="#1a1b26"/><rect x="1359.5" y="618.0" width="9.0" height="19" fill="#1a1b26"/><text x="1359.5" y="632.8" xml:space="preserve" fill="#6b739e">│</text><rect x="14.0" y="637.0" width="18.1" height="19" fill="#1a1b26"/><text x="14.0" y="651.8" xml:space="preserve" fill="#bb9af7">││</text><rect x="32.1" y="637.0" width="406.3" height="19" fill="#1a1b26"/><text x="32.1" y="651.8" xml:space="preserve" fill="#6b739e">• 2. потом /handoff claude-code ./moe-graft ↵</text><rect x="438.4" y="637.0" width="433.4" height="19" fill="#1a1b26"/><rect x="871.8" y="637.0" width="9.0" height="19" fill="#1a1b26"/><text x="871.8" y="651.8" xml:space="preserve" fill="#bb9af7">│</text><rect x="880.9" y="637.0" width="9.0" height="19" fill="#1a1b26"/><text x="880.9" y="651.8" xml:space="preserve" fill="#7dcfff">█</text><rect x="889.9" y="637.0" width="9.0" height="19" fill="#1a1b26"/><text x="889.9" y="651.8" xml:space="preserve" fill="#6b739e">│</text><rect x="898.9" y="637.0" width="460.5" height="19" fill="#1a1b26"/><rect x="1359.5" y="637.0" width="9.0" height="19" fill="#1a1b26"/><text x="1359.5" y="651.8" xml:space="preserve" fill="#6b739e">│</text><rect x="14.0" y="656.0" width="866.9" height="19" fill="#1a1b26"/><text x="14.0" y="670.8" xml:space="preserve" fill="#bb9af7">│╰─────────────────────────────────────────────────────────────────────────────────────────────╯</text><rect x="880.9" y="656.0" width="9.0" height="19" fill="#1a1b26"/><text x="880.9" y="670.8" xml:space="preserve" fill="#7dcfff">█</text><rect x="889.9" y="656.0" width="9.0" height="19" fill="#1a1b26"/><text x="889.9" y="670.8" xml:space="preserve" fill="#6b739e">│</text><rect x="898.9" y="656.0" width="460.5" height="19" fill="#1a1b26"/><rect x="1359.5" y="656.0" width="9.0" height="19" fill="#1a1b26"/><text x="1359.5" y="670.8" xml:space="preserve" fill="#6b739e">│</text><rect x="14.0" y="675.0" width="9.0" height="19" fill="#1a1b26"/><text x="14.0" y="689.8" xml:space="preserve" fill="#bb9af7">│</text><rect x="23.0" y="675.0" width="857.8" height="19" fill="#1a1b26"/><rect x="880.9" y="675.0" width="9.0" height="19" fill="#1a1b26"/><text x="880.9" y="689.8" xml:space="preserve" fill="#7dcfff">█</text><rect x="889.9" y="675.0" width="9.0" height="19" fill="#1a1b26"/><text x="889.9" y="689.8" xml:space="preserve" fill="#6b739e">│</text><rect x="898.9" y="675.0" width="460.5" height="19" fill="#1a1b26"/><rect x="1359.5" y="675.0" width="9.0" height="19" fill="#1a1b26"/><text x="1359.5" y="689.8" xml:space="preserve" fill="#6b739e">│</text><rect x="14.0" y="694.0" width="875.9" height="19" fill="#1a1b26"/><text x="14.0" y="708.8" xml:space="preserve" fill="#bb9af7">╰───────────────────────────────────────────────────────────────────────────────────────────────╯</text><rect x="889.9" y="694.0" width="478.6" height="19" fill="#1a1b26"/><text x="889.9" y="708.8" xml:space="preserve" fill="#6b739e">╰───────────────────────────────────────────────────╯</text><rect x="14.0" y="713.0" width="912.0" height="19" fill="#1a1b26"/><rect x="926.0" y="713.0" width="135.4" height="19" fill="#1a1b26"/><text x="926.0" y="727.8" xml:space="preserve" fill="#bb9af7" font-weight="700">  модель думает</text><rect x="1061.5" y="713.0" width="307.0" height="19" fill="#1a1b26"/><text x="1061.5" y="727.8" xml:space="preserve" fill="#6b739e">  ·  очередь: 2  ·  Esc — прервать</text><rect x="14.0" y="732.0" width="18.1" height="19" fill="#1a1b26"/><text x="14.0" y="746.8" xml:space="preserve" fill="#7dcfff" font-weight="700">›</text><rect x="32.1" y="732.0" width="1336.4" height="19" fill="#1a1b26"/><text x="32.1" y="746.8" xml:space="preserve" fill="#c0caf5">покажи fitness-функции для KL-регуляризации</text><rect x="14.0" y="751.0" width="18.1" height="19" fill="#1a1b26"/><rect x="32.1" y="751.0" width="1336.4" height="19" fill="#1a1b26"/><text x="32.1" y="765.8" xml:space="preserve" fill="#c0caf5">и preflight под 8×A100</text><rect x="14.0" y="770.0" width="252.8" height="19" fill="#7dcfff"/><text x="14.0" y="784.8" xml:space="preserve" fill="#1a1b26" font-weight="700"> deepseek:deepseek-v4-flash</text><rect x="266.8" y="770.0" width="126.4" height="19" fill="#1a1b26"/><text x="266.8" y="784.8" xml:space="preserve" fill="#6b739e"> ◈ 61.4k/1.0M</text><rect x="393.3" y="770.0" width="379.3" height="19" fill="#1a1b26"/><text x="393.3" y="784.8" xml:space="preserve" fill="#9ece6a">▱▱▱▱▱▱▱▱ 6%  · ⠋ субагенты: explore, explo</text><rect x="772.5" y="770.0" width="45.1" height="19" fill="#1a1b26"/><text x="772.5" y="784.8" xml:space="preserve" fill="#7dcfff" font-weight="700">Enter</text><rect x="817.7" y="770.0" width="108.4" height="19" fill="#1a1b26"/><text x="817.7" y="784.8" xml:space="preserve" fill="#6b739e"> в очередь</text><rect x="926.0" y="770.0" width="81.3" height="19" fill="#1a1b26"/><text x="926.0" y="784.8" xml:space="preserve" fill="#7dcfff" font-weight="700">Alt+Enter</text><rect x="1007.3" y="770.0" width="81.3" height="19" fill="#1a1b26"/><text x="1007.3" y="784.8" xml:space="preserve" fill="#6b739e"> срочно</text><rect x="1088.6" y="770.0" width="27.1" height="19" fill="#1a1b26"/><text x="1088.6" y="784.8" xml:space="preserve" fill="#7dcfff" font-weight="700">Esc</text><rect x="1115.7" y="770.0" width="99.3" height="19" fill="#1a1b26"/><text x="1115.7" y="784.8" xml:space="preserve" fill="#6b739e"> прервать</text><rect x="1215.0" y="770.0" width="9.0" height="19" fill="#1a1b26"/><text x="1215.0" y="784.8" xml:space="preserve" fill="#7dcfff" font-weight="700">?</text><rect x="1224.0" y="770.0" width="81.3" height="19" fill="#1a1b26"/><text x="1224.0" y="784.8" xml:space="preserve" fill="#6b739e"> помощь</text><rect x="1305.3" y="770.0" width="9.0" height="19" fill="#1a1b26"/><text x="1305.3" y="784.8" xml:space="preserve" fill="#7dcfff" font-weight="700">q</text><rect x="1314.3" y="770.0" width="54.2" height="19" fill="#1a1b26"/><text x="1314.3" y="784.8" xml:space="preserve" fill="#6b739e"> выход</text></svg>
